<?xml version="1.0" standalone="no"?>
<!DOCTYPE svg PUBLIC "-//W3C//DTD SVG 20010904//EN"
 "http://www.w3.org/TR/2001/REC-SVG-20010904/DTD/svg10.dtd">
<svg version="1.0" xmlns="http://www.w3.org/2000/svg"
 width="729.000000pt" height="1280.000000pt" viewBox="0 0 729.000000 1280.000000"
 preserveAspectRatio="xMidYMid meet">
<metadata>
Created by potrace 1.15, written by Peter Selinger 2001-2017
</metadata>
<g transform="translate(0.000000,1280.000000) scale(0.100000,-0.100000)"
fill="#ffffff" stroke="none">
<path d="M862 12784 c-413 -69 -737 -377 -839 -796 -17 -69 -18 -337 -21
-5543 -2 -4886 -1 -5481 13 -5569 67 -427 383 -762 808 -853 77 -17 234 -18
2822 -18 2588 0 2745 1 2822 18 422 91 739 423 808 848 13 83 15 700 15 5529
0 4829 -2 5446 -15 5529 -68 420 -374 745 -797 848 -69 16 -226 18 -2803 19
-2302 2 -2743 0 -2813 -12z m5538 -318 c264 -89 445 -278 513 -536 l22 -85 0
-5445 0 -5445 -22 -85 c-69 -261 -258 -456 -518 -537 -58 -17 -168 -18 -2750
-18 -2582 0 -2692 1 -2750 18 -257 80 -445 272 -518 532 l-22 80 -3 5385 c-2
3625 1 5417 8 5482 30 287 190 509 448 622 132 58 -41 55 2862 53 2580 -2
2677 -3 2730 -21z"/>
<path d="M2915 11961 c-209 -52 -244 -330 -54 -425 l53 -26 731 0 731 0 53 26
c63 32 105 86 120 152 22 106 -27 204 -129 258 -33 18 -73 19 -755 21 -396 1
-733 -2 -750 -6z"/>
<path d="M542 6588 l3 -4543 3100 0 3100 0 3 4543 2 4542 -3105 0 -3105 0 2
-4542z m5888 0 l0 -4178 -2785 0 -2785 0 0 4178 0 4177 2785 0 2785 0 0 -4177z"/>
<path d="M3480 1707 c-201 -60 -361 -234 -405 -442 -27 -128 -11 -244 50 -374
46 -97 161 -214 255 -259 173 -84 357 -84 530 0 94 45 209 162 255 259 38 81
65 187 65 259 0 191 -122 401 -289 500 -136 80 -310 101 -461 57z"/>
</g>
</svg>
